# xmcd
#
# Track frame offsets:
#	150
#	19588
#	38209
#	58587
#	78318
#	99663
#	121737
#	141002
#	161131
#	175678
#	184646
#	205622
#	225034
#
# Disc length: 3255 seconds
#
# Revision: 1
# Processed by: cddbd v1.5.1PL0 Copyright (c) Steve Scherf et al.
# Submitted via: audiograbber 1.83.01
#
DISCID=950cb50d
DTITLE=DEIVIS - Oro Lektuvelis
DYEAR=1900
DGENRE=
TTITLE0=Vis Tiek As Laimingas
TTITLE1=Skrisk
TTITLE2=Amzini
TTITLE3=Sirdys
TTITLE4=Ir Nieko Daugiau
TTITLE5=Vaiku Balsai
TTITLE6=Mes Esam Cia
TTITLE7=Niekas Manes Nemyli
TTITLE8=Oro Lektuvelis
TTITLE9=
TTITLE10=All I Want
TTITLE11=Uzliek Mane (duetas su Kaniava)
TTITLE12=Malda (duetas su Kaniava)
EXTD=SHUDAS PIzdiec
EXTT0=
EXTT1=
EXTT2=
EXTT3=
EXTT4=
EXTT5=
EXTT6=
EXTT7=
EXTT8=
EXTT9=
EXTT10=
EXTT11=
EXTT12=
PLAYORDER=
